PathFileType	4	(X/Y/Z)	C:/Users/opensim2020/Desktop/walking_exp_matlab/subject03_walking15_straight_02.trc																																																																																																																																											
DataRate	CameraRate	NumFrames	NumMarkers	Units	OrigDataRate	OrigDataStartFrame	OrigNumFrames																																																																																																																																							
100	100	4	47	mm	100	1215	149																																																																																																																																							
Frame#	Time	LFHD			RFHD			LBHD			RBHD			C7			T10			CLAV			STRN			RBAK			LSHO			LUPA			LELB			LFRM			LWRA			LWRB			LFIN			RSHO			RUPA			RELB			RFRM			RWRA			RWRB			RFIN			LASI			RASI			LPSI			RPSI			LTHI			LKNE			LTIB			LANK			LHEE			LTOE			RTHI			RKNE			RTIB			RANK			RHEE			RTOE			*39			*40			*41			*42			*43			*44			*45			*46		
		X1	Y1	Z1	X2	Y2	Z2	X3	Y3	Z3	X4	Y4	Z4	X5	Y5	Z5	X6	Y6	Z6	X7	Y7	Z7	X8	Y8	Z8	X9	Y9	Z9	X10	Y10	Z10	X11	Y11	Z11	X12	Y12	Z12	X13	Y13	Z13	X14	Y14	Z14	X15	Y15	Z15	X16	Y16	Z16	X17	Y17	Z17	X18	Y18	Z18	X19	Y19	Z19	X20	Y20	Z20	X21	Y21	Z21	X22	Y22	Z22	X23	Y23	Z23	X24	Y24	Z24	X25	Y25	Z25	X26	Y26	Z26	X27	Y27	Z27	X28	Y28	Z28	X29	Y29	Z29	X30	Y30	Z30	X31	Y31	Z31	X32	Y32	Z32	X33	Y33	Z33	X34	Y34	Z34	X35	Y35	Z35	X36	Y36	Z36	X37	Y37	Z37	X38	Y38	Z38	X39	Y39	Z39	X40	Y40	Z40	X41	Y41	Z41	X42	Y42	Z42	X43	Y43	Z43	X44	Y44	Z44	X45	Y45	Z45	X46	Y46	Z46	X47	Y47	Z47
																																																																																																																																														
131	1.3	774.95734	1577.50574	885.95392	782.05542	1598.92957	1017.33167	647.10724	1535.73645	904.32062	659.68207	1556.46729	1032.75891	630.00714	1373.21777	967.00635	635.84863	1055.96265	971.49841	757.38666	1310.76086	979.12152	823.32312	1154.17322	981.15399	590.59247	1187.84021	1058.90039	723.35834	1343.38647	818.53833	718.32446	1144.47632	747.19531	713.0379	1020.76141	736.69299	711.63098	889.57794	733.56403	687.38629	767.80634	755.41956	688.63318	781.76184	699.17218	638.1767	705.52258	701.05994	691.50262	1330.72058	1133.86389	720.63049	1115.56689	1218.95313	765.30737	1016.23035	1235.67578	855.79315	917.70795	1224.51587	937.06989	870.08746	1180.04797	916.30676	838.5011	1218.0603	981.08893	807.26331	1206.91821	829.17627	919.6308	874.69678	800.48254	903.77148	1107.89746	661.86823	926.15344	900.65442	645.27991	927.12604	1050.63977	870.50787	630.38391	821.11658	945.19147	474.41821	869.08441	930.06482	271.99576	863.62994	929.14423	64.22325	906.70667	887.21307	31.48896	940.90564	1079.78125	30.89551	933.63867	713.76752	608.38007	1154.64978	703.54608	427.71939	1137.03284	547.16351	309.42291	1126.90295	387.62338	167.89815	1073.49731	344.53018	184.2388	1016.62469	430.92148	29.65588	1048.87915	695.08215	1644.45471	936.19623	NaN	NaN	NaN	NaN	NaN	NaN	NaN	NaN	NaN	NaN	NaN	NaN	NaN	NaN	NaN	NaN	NaN	NaN	NaN	NaN	NaN
132	1.31	787.33447	1576.61841	884.60168	794.70758	1598.61108	1015.77106	659.42047	1534.81042	903.38483	672.50928	1555.84021	1031.46997	643.15363	1372.5542	966.14453	649.66473	1055.3833	970.88898	770.85986	1310.37732	978.17511	837.34204	1154.0614	980.39807	604.16473	1186.98083	1057.83813	737.08472	1343.00793	817.5755	733.28625	1144.3512	745.51776	728.58844	1020.61621	734.4798	728.50623	889.51007	730.95453	705.6554	767.56604	752.67102	706.3736	781.52332	696.50616	659.93628	703.06177	698.79279	704.96692	1329.87195	1132.80103	733.08002	1114.43933	1217.26587	777.31372	1014.82416	1233.65393	867.31403	915.87286	1222.20557	948.41223	867.86548	1177.77551	927.409	836.33966	1215.71875	992.00171	804.52411	1204.43604	843.56396	921.0921	874.04553	814.99408	903.13367	1106.58984	675.7218	926.36359	900.71191	659.40881	925.55316	1050.49536	887.72485	631.90674	820.83698	960.46729	474.45328	869.2699	939.78711	272.37323	863.97192	929.63116	65.1599	906.66895	887.539	31.6448	940.77148	1080.35889	30.543	933.79932	733.87006	605.72095	1155.05688	728.16101	425.21371	1138.43164	570.67664	310.59814	1128.5769	407.90741	172.36723	1076.56738	366.23599	195.76044	1020.5899	436.29355	32.64553	1047.14575	708.60895	1644.0199	931.09082	NaN	NaN	NaN	NaN	NaN	NaN	NaN	NaN	NaN	NaN	NaN	NaN	NaN	NaN	NaN	NaN	NaN	NaN	NaN	NaN	NaN
133	1.32	799.68646	1576.06104	883.03229	807.29681	1598.44043	1014.15845	671.7337	1533.95557	902.62427	685.24878	1555.30066	1030.24097	656.11938	1371.94971	964.98126	662.8858	1055.10742	970.61584	784.07355	1310.05615	977.34497	850.8891	1153.95471	979.76263	617.3208	1186.48535	1057.06299	750.67682	1342.68787	816.77484	747.96637	1144.3512	743.88818	744.30182	1020.591	732.24542	746.11273	889.84808	728.02502	724.34351	767.47736	749.96332	724.70691	781.37854	693.81128	682.74677	700.56885	696.94232	718.18469	1329.4541	1131.86279	745.69843	1113.5271	1215.38782	789.3324	1013.55597	1231.5813	878.6048	913.95331	1219.99329	959.40369	865.40057	1175.57275	938.09741	833.86151	1213.45593	1002.29279	801.24213	1201.93066	857.52057	922.35419	873.36133	828.91583	902.55975	1105.59644	689.38171	926.33124	900.67822	672.88586	923.89392	1050.23157	903.96594	632.91968	820.14233	973.39801	473.69577	868.79834	946.82233	272.17081	863.74817	930.07043	65.41204	906.8454	887.28204	31.94874	940.65765	1080.62805	30.28659	934.18073	753.75092	603.07019	1155.03455	753.09711	422.75681	1139.0564	596.50903	309.64078	1130.72522	428.33267	178.49223	1079.10156	388.31195	207.47003	1024.44788	444.58173	38.47168	1046.1842	720.93988	1643.33142	929.11664	NaN	NaN	NaN	NaN	NaN	NaN	NaN	NaN	NaN	NaN	NaN	NaN	NaN	NaN	NaN	NaN	NaN	NaN	NaN	NaN	NaN
134	1.33	812.04736	1575.79602	881.43219	819.92413	1598.56079	1012.48206	684.49091	1533.23315	901.11169	698.03326	1555.18726	1029.10852	668.65063	1371.3573	963.96484	676.27808	1054.77148	970.04034	797.00562	1309.98352	976.56641	864.02069	1154.00842	979.35791	630.09265	1186.41772	1056.49292	764.05396	1342.49243	816.0332	762.237	1144.3877	742.39948	760.08386	1020.68396	730.05292	763.06842	889.72943	725.84259	743.87585	767.57123	747.25195	743.21588	781.24341	691.3269	707.03351	698.37311	695.09454	731.12189	1329.50354	1131.10181	758.26874	1112.76086	1213.95105	801.34424	1012.34644	1229.56152	889.79224	912.00061	1217.82666	970.14978	862.53705	1173.57507	948.35303	831.2074	1211.2334	1012.04498	797.56079	1199.48438	871.1394	923.50134	872.80322	842.27539	902.07813	1105.03687	702.5152	926.36597	900.53186	685.90143	922.27429	1049.81506	917.50958	633.12122	819.3252	984.03363	472.35089	867.70032	951.91553	271.6777	863.20459	930.52917	65.72401	907.01898	887.32196	32.18911	940.63843	1080.69324	30.09568	934.23907	773.20105	600.75903	1154.52051	778.57336	420.5379	1139.099	622.29779	309.38303	1132.677	448.85757	186.43782	1081.08643	411.29764	219.12102	1026.82336	455.57709	45.94959	1047.26843	732.7298	1642.21875	928.93311	NaN	NaN	NaN	NaN	NaN	NaN	NaN	NaN	NaN	NaN	NaN	NaN	NaN	NaN	NaN	NaN	NaN	NaN	NaN	NaN	NaN
